%TF.GenerationSoftware,KiCad,Pcbnew,(5.1.9)-1*%
%TF.CreationDate,2021-02-20T15:56:34+01:00*%
%TF.ProjectId,RFM95_shield_v0_2 + PC814,52464d39-355f-4736-9869-656c645f7630,rev?*%
%TF.SameCoordinates,Original*%
%TF.FileFunction,Copper,L1,Top*%
%TF.FilePolarity,Positive*%
%FSLAX46Y46*%
G04 Gerber Fmt 4.6, Leading zero omitted, Abs format (unit mm)*
G04 Created by KiCad (PCBNEW (5.1.9)-1) date 2021-02-20 15:56:34*
%MOMM*%
%LPD*%
G01*
G04 APERTURE LIST*
%TA.AperFunction,ComponentPad*%
%ADD10C,1.524000*%
%TD*%
%TA.AperFunction,ComponentPad*%
%ADD11R,1.524000X1.524000*%
%TD*%
%TA.AperFunction,ConnectorPad*%
%ADD12R,1.270000X3.600000*%
%TD*%
%TA.AperFunction,ConnectorPad*%
%ADD13R,1.350000X4.199999*%
%TD*%
%TA.AperFunction,ComponentPad*%
%ADD14O,1.600000X1.600000*%
%TD*%
%TA.AperFunction,ComponentPad*%
%ADD15C,1.600000*%
%TD*%
%TA.AperFunction,ComponentPad*%
%ADD16O,1.320800X2.641600*%
%TD*%
%TA.AperFunction,SMDPad,CuDef*%
%ADD17R,0.990600X0.990600*%
%TD*%
%TA.AperFunction,SMDPad,CuDef*%
%ADD18R,0.990600X2.209800*%
%TD*%
%TA.AperFunction,SMDPad,CuDef*%
%ADD19R,1.701800X4.775200*%
%TD*%
%TA.AperFunction,ComponentPad*%
%ADD20C,1.701800*%
%TD*%
%TA.AperFunction,SMDPad,CuDef*%
%ADD21R,2.000000X1.000000*%
%TD*%
%TA.AperFunction,Conductor*%
%ADD22C,0.342900*%
%TD*%
%TA.AperFunction,Conductor*%
%ADD23C,0.860000*%
%TD*%
%TA.AperFunction,Conductor*%
%ADD24C,0.680000*%
%TD*%
%TA.AperFunction,Conductor*%
%ADD25C,0.450000*%
%TD*%
%TA.AperFunction,Conductor*%
%ADD26C,0.174244*%
%TD*%
%TA.AperFunction,Conductor*%
%ADD27C,0.254000*%
%TD*%
%TA.AperFunction,Conductor*%
%ADD28C,0.100000*%
%TD*%
G04 APERTURE END LIST*
D10*
%TO.P,P1,2*%
%TO.N,N/C*%
X179705000Y-84582000D03*
D11*
%TO.P,P1,1*%
X177165000Y-84582000D03*
%TD*%
D12*
%TO.P, ,1*%
%TO.N,N/C*%
X132334000Y-92197000D03*
D13*
%TO.P, ,3*%
%TO.N,/GND*%
X129509000Y-92397000D03*
%TO.P, ,2*%
X135159000Y-92397000D03*
%TD*%
D11*
%TO.P,P2,1*%
%TO.N,N/C*%
X172847000Y-119380000D03*
D10*
%TO.P,P2,2*%
X175387000Y-119380000D03*
%TO.P,P2,3*%
X177927000Y-119380000D03*
%TD*%
D14*
%TO.P,R2,2*%
%TO.N,N/C*%
X183007000Y-111887000D03*
D15*
%TO.P,R2,1*%
X172847000Y-111887000D03*
%TD*%
D16*
%TO.P, ,1*%
%TO.N,N/C*%
X179070000Y-98044000D03*
%TO.P, ,2*%
X176530000Y-98044000D03*
%TO.P, ,3*%
X176530000Y-105664000D03*
%TO.P, ,4*%
X179070000Y-105664000D03*
%TD*%
D15*
%TO.P,R1,1*%
%TO.N,N/C*%
X183134000Y-91313000D03*
D14*
%TO.P,R1,2*%
X172974000Y-91313000D03*
%TD*%
D17*
%TO.P, ,3*%
%TO.N,/GND*%
X124333000Y-91757500D03*
D18*
%TO.P, ,2*%
X122885200Y-93243400D03*
%TO.P, ,4*%
X125780800Y-93243400D03*
D17*
%TO.P, ,1*%
%TO.N,N/C*%
X124333000Y-94729300D03*
%TD*%
D19*
%TO.P, ,1*%
%TO.N,N/C*%
X132334000Y-92710000D03*
D20*
X132334000Y-94234000D03*
%TD*%
D10*
%TO.P, ,7*%
%TO.N,/DIO2*%
X120523000Y-114935000D03*
%TO.P, ,6*%
%TO.N,/DIO1*%
X120523000Y-112395000D03*
%TO.P, ,4*%
%TO.N,/3V3*%
X120523000Y-107315000D03*
%TO.P, ,5*%
%TO.N,/DIO0*%
X120523000Y-109855000D03*
%TO.P, ,3*%
%TO.N,Net-(P1-Pad3)*%
X120523000Y-104775000D03*
%TO.P, ,2*%
%TO.N,Net-(P1-Pad2)*%
X120523000Y-102235000D03*
D11*
%TO.P, ,1*%
%TO.N,/GND*%
X120523000Y-99695000D03*
%TD*%
D10*
%TO.P, ,6*%
%TO.N,/MOSI*%
X143383000Y-109855000D03*
%TO.P, ,4*%
%TO.N,/NSS*%
X143383000Y-104775000D03*
%TO.P, ,3*%
%TO.N,/RST*%
X143383000Y-102235000D03*
%TO.P, ,2*%
%TO.N,Net-(P2-Pad2)*%
X143383000Y-99695000D03*
D11*
%TO.P, ,1*%
%TO.N,/GND*%
X143383000Y-97155000D03*
D10*
%TO.P, ,7*%
%TO.N,/MISO*%
X143383000Y-112395000D03*
%TO.P, ,8*%
%TO.N,/GND*%
X143383000Y-114935000D03*
%TO.P, ,5*%
%TO.N,/SCK*%
X143383000Y-107315000D03*
%TD*%
D21*
%TO.P, ,1*%
%TO.N,/GND*%
X140334000Y-113299000D03*
%TO.P, ,2*%
%TO.N,/MISO*%
X140334000Y-111299000D03*
%TO.P, ,3*%
%TO.N,/MOSI*%
X140334000Y-109299000D03*
%TO.P, ,4*%
%TO.N,/SCK*%
X140334000Y-107299000D03*
%TO.P, ,5*%
%TO.N,/NSS*%
X140334000Y-105299000D03*
%TO.P, ,6*%
%TO.N,/RST*%
X140334000Y-103299000D03*
%TO.P, ,7*%
%TO.N,Net-(P2-Pad2)*%
X140334000Y-101299000D03*
%TO.P, ,8*%
%TO.N,/GND*%
X140334000Y-99299000D03*
%TO.P, ,9*%
%TO.N,Net-(U1-Pad9)*%
X124334000Y-99299000D03*
%TO.P, ,10*%
%TO.N,/GND*%
X124334000Y-101299000D03*
%TO.P, ,11*%
%TO.N,Net-(P1-Pad2)*%
X124334000Y-103299000D03*
%TO.P, ,12*%
%TO.N,Net-(P1-Pad3)*%
X124334000Y-105299000D03*
%TO.P, ,13*%
%TO.N,/3V3*%
X124334000Y-107299000D03*
%TO.P, ,14*%
%TO.N,/DIO0*%
X124334000Y-109299000D03*
%TO.P, ,15*%
%TO.N,/DIO1*%
X124334000Y-111299000D03*
%TO.P, ,16*%
%TO.N,/DIO2*%
X124334000Y-113299000D03*
%TD*%
D22*
%TO.N,*%
X131699000Y-94869000D02*
X124599700Y-94869000D01*
X132334000Y-94234000D02*
X131699000Y-94869000D01*
X132334000Y-94234000D02*
X132334000Y-92710000D01*
D23*
X179705000Y-87884000D02*
X183134000Y-91313000D01*
X179705000Y-84582000D02*
X179705000Y-87884000D01*
X179070000Y-98044000D02*
X179070000Y-93726000D01*
X176657000Y-91313000D02*
X172974000Y-91313000D01*
X179070000Y-93726000D02*
X176657000Y-91313000D01*
X177165000Y-84582000D02*
X173355000Y-84582000D01*
X173355000Y-84582000D02*
X169799000Y-88138000D01*
X169799000Y-88138000D02*
X169799000Y-93980000D01*
X173863000Y-98044000D02*
X176530000Y-98044000D01*
X169799000Y-93980000D02*
X173863000Y-98044000D01*
X183007000Y-109601000D02*
X179070000Y-105664000D01*
X183007000Y-111887000D02*
X183007000Y-109601000D01*
X172847000Y-111887000D02*
X172847000Y-119380000D01*
X176530000Y-105664000D02*
X176530000Y-106426000D01*
X175387000Y-119380000D02*
X175387000Y-117983000D01*
X181483000Y-111887000D02*
X182499000Y-111887000D01*
X175387000Y-117983000D02*
X181483000Y-111887000D01*
X182499000Y-111887000D02*
X183007000Y-111887000D01*
X177927000Y-121031000D02*
X177927000Y-119380000D01*
X177419000Y-121539000D02*
X177927000Y-121031000D01*
X171069000Y-121539000D02*
X177419000Y-121539000D01*
X169037000Y-119507000D02*
X171069000Y-121539000D01*
X170688000Y-105664000D02*
X169037000Y-107315000D01*
X169037000Y-107315000D02*
X169037000Y-119507000D01*
X176530000Y-105664000D02*
X170688000Y-105664000D01*
D24*
%TO.N,/DIO2*%
X122698000Y-114935000D02*
X124334000Y-113299000D01*
X120523000Y-114935000D02*
X122698000Y-114935000D01*
%TO.N,/DIO1*%
X121619000Y-111299000D02*
X124334000Y-111299000D01*
X120523000Y-112395000D02*
X121619000Y-111299000D01*
%TO.N,/3V3*%
X124318000Y-107315000D02*
X124334000Y-107299000D01*
X120523000Y-107315000D02*
X124318000Y-107315000D01*
%TO.N,/DIO0*%
X120523000Y-109855000D02*
X120777000Y-109855000D01*
X121333000Y-109299000D02*
X124334000Y-109299000D01*
X120777000Y-109855000D02*
X121333000Y-109299000D01*
D25*
%TO.N,Net-(P1-Pad3)*%
X120523000Y-104775000D02*
X121920000Y-104775000D01*
X122444000Y-105299000D02*
X124334000Y-105299000D01*
X121920000Y-104775000D02*
X122444000Y-105299000D01*
%TO.N,Net-(P1-Pad2)*%
X120523000Y-102235000D02*
X121539000Y-103251000D01*
X124286000Y-103251000D02*
X124334000Y-103299000D01*
X121539000Y-103251000D02*
X124286000Y-103251000D01*
D24*
%TO.N,/GND*%
X140334000Y-99299000D02*
X140334000Y-98299000D01*
X141478000Y-97155000D02*
X143383000Y-97155000D01*
X140334000Y-98299000D02*
X141478000Y-97155000D01*
X140334000Y-113299000D02*
X140334000Y-114045000D01*
X141224000Y-114935000D02*
X143383000Y-114935000D01*
X140334000Y-114045000D02*
X141224000Y-114935000D01*
X120523000Y-99695000D02*
X121031000Y-99695000D01*
X122635000Y-101299000D02*
X124334000Y-101299000D01*
X121031000Y-99695000D02*
X122635000Y-101299000D01*
D26*
X128662600Y-93243400D02*
X129509000Y-92397000D01*
X125780800Y-93243400D02*
X128662600Y-93243400D01*
D24*
%TO.N,/MOSI*%
X142367000Y-109855000D02*
X143383000Y-109855000D01*
X142288000Y-109776000D02*
X142367000Y-109855000D01*
X142288000Y-109299000D02*
X142288000Y-109776000D01*
X140334000Y-109299000D02*
X142288000Y-109299000D01*
%TO.N,/NSS*%
X140334000Y-105299000D02*
X141970000Y-105299000D01*
X142494000Y-104775000D02*
X143383000Y-104775000D01*
X141970000Y-105299000D02*
X142494000Y-104775000D01*
%TO.N,/RST*%
X140334000Y-103299000D02*
X141430000Y-103299000D01*
X142494000Y-102235000D02*
X143383000Y-102235000D01*
X141430000Y-103299000D02*
X142494000Y-102235000D01*
D25*
%TO.N,Net-(P2-Pad2)*%
X140334000Y-101299000D02*
X140763000Y-101299000D01*
X140763000Y-101299000D02*
X141605000Y-100457000D01*
X142621001Y-100456999D02*
X143383000Y-99695000D01*
X141605000Y-100457000D02*
X142621001Y-100456999D01*
D24*
%TO.N,/MISO*%
X140334000Y-111299000D02*
X141525000Y-111299000D01*
X142621000Y-112395000D02*
X143383000Y-112395000D01*
X141525000Y-111299000D02*
X142621000Y-112395000D01*
%TO.N,/SCK*%
X143367000Y-107299000D02*
X143383000Y-107315000D01*
X140334000Y-107299000D02*
X143367000Y-107299000D01*
D22*
%TO.N,Net-(U1-Pad9)*%
X124334000Y-94730300D02*
X124334000Y-99299000D01*
%TD*%
D27*
%TO.N,/GND*%
X128195928Y-90297001D02*
X128199000Y-92111250D01*
X128357750Y-92270000D01*
X129382000Y-92270000D01*
X129382000Y-92250000D01*
X129636000Y-92250000D01*
X129636000Y-92270000D01*
X129656000Y-92270000D01*
X129656000Y-92524000D01*
X129636000Y-92524000D01*
X129636000Y-92544000D01*
X129382000Y-92544000D01*
X129382000Y-92524000D01*
X128357750Y-92524000D01*
X128199000Y-92682750D01*
X128197094Y-93808550D01*
X126912148Y-93808550D01*
X126911100Y-93529150D01*
X126752350Y-93370400D01*
X125907800Y-93370400D01*
X125907800Y-93390400D01*
X125653800Y-93390400D01*
X125653800Y-93370400D01*
X125043900Y-93370400D01*
X125002574Y-93357864D01*
X124828300Y-93340699D01*
X123837700Y-93340699D01*
X123663426Y-93357864D01*
X123622100Y-93370400D01*
X123012200Y-93370400D01*
X123012200Y-93892798D01*
X122961564Y-94059726D01*
X122944399Y-94234000D01*
X122944399Y-95224600D01*
X122961564Y-95398874D01*
X123012397Y-95566451D01*
X123094947Y-95720891D01*
X123206041Y-95856259D01*
X123273550Y-95911663D01*
X123273551Y-97911653D01*
X123159726Y-97922864D01*
X122992149Y-97973697D01*
X122837709Y-98056247D01*
X122702341Y-98167341D01*
X122591247Y-98302709D01*
X122508697Y-98457149D01*
X122457864Y-98624726D01*
X122440699Y-98799000D01*
X122440699Y-99799000D01*
X122457864Y-99973274D01*
X122508697Y-100140851D01*
X122591247Y-100295291D01*
X122702341Y-100430659D01*
X122777774Y-100492566D01*
X122744498Y-100554820D01*
X122708188Y-100674518D01*
X122695928Y-100799000D01*
X122699000Y-101013250D01*
X122857750Y-101172000D01*
X124207000Y-101172000D01*
X124207000Y-101152000D01*
X124461000Y-101152000D01*
X124461000Y-101172000D01*
X124481000Y-101172000D01*
X124481000Y-101426000D01*
X124461000Y-101426000D01*
X124461000Y-101446000D01*
X124207000Y-101446000D01*
X124207000Y-101426000D01*
X122857750Y-101426000D01*
X122699000Y-101584750D01*
X122695928Y-101799000D01*
X122708188Y-101923482D01*
X122744498Y-102043180D01*
X122777774Y-102105434D01*
X122739311Y-102137000D01*
X122174000Y-102137000D01*
X122174000Y-102072391D01*
X122110553Y-101753421D01*
X121986097Y-101452958D01*
X121805415Y-101182549D01*
X121620536Y-100997670D01*
X121639494Y-100987537D01*
X121736185Y-100908185D01*
X121815537Y-100811494D01*
X121874502Y-100701180D01*
X121910812Y-100581482D01*
X121923072Y-100457000D01*
X121920000Y-99980750D01*
X121761250Y-99822000D01*
X120650000Y-99822000D01*
X120650000Y-99842000D01*
X120396000Y-99842000D01*
X120396000Y-99822000D01*
X119284750Y-99822000D01*
X119126000Y-99980750D01*
X119122928Y-100457000D01*
X119135188Y-100581482D01*
X119171498Y-100701180D01*
X119230463Y-100811494D01*
X119309815Y-100908185D01*
X119406506Y-100987537D01*
X119425464Y-100997670D01*
X119240585Y-101182549D01*
X119059903Y-101452958D01*
X118935447Y-101753421D01*
X118872000Y-102072391D01*
X118872000Y-102397609D01*
X118935447Y-102716579D01*
X119059903Y-103017042D01*
X119240585Y-103287451D01*
X119458134Y-103505000D01*
X119240585Y-103722549D01*
X119059903Y-103992958D01*
X118935447Y-104293421D01*
X118872000Y-104612391D01*
X118872000Y-104937609D01*
X118935447Y-105256579D01*
X119059903Y-105557042D01*
X119240585Y-105827451D01*
X119458134Y-106045000D01*
X119240585Y-106262549D01*
X119059903Y-106532958D01*
X118935447Y-106833421D01*
X118872000Y-107152391D01*
X118872000Y-107477609D01*
X118935447Y-107796579D01*
X119059903Y-108097042D01*
X119240585Y-108367451D01*
X119458134Y-108585000D01*
X119240585Y-108802549D01*
X119059903Y-109072958D01*
X118935447Y-109373421D01*
X118872000Y-109692391D01*
X118872000Y-110017609D01*
X118935447Y-110336579D01*
X119059903Y-110637042D01*
X119240585Y-110907451D01*
X119458134Y-111125000D01*
X119240585Y-111342549D01*
X119059903Y-111612958D01*
X118935447Y-111913421D01*
X118872000Y-112232391D01*
X118872000Y-112557609D01*
X118935447Y-112876579D01*
X119059903Y-113177042D01*
X119240585Y-113447451D01*
X119458134Y-113665000D01*
X119240585Y-113882549D01*
X119059903Y-114152958D01*
X118935447Y-114453421D01*
X118872000Y-114772391D01*
X118872000Y-115097609D01*
X118935447Y-115416579D01*
X119059903Y-115717042D01*
X119240585Y-115987451D01*
X119470549Y-116217415D01*
X119740958Y-116398097D01*
X120041421Y-116522553D01*
X120360391Y-116586000D01*
X120685609Y-116586000D01*
X121004579Y-116522553D01*
X121305042Y-116398097D01*
X121575451Y-116217415D01*
X121628866Y-116164000D01*
X122637631Y-116164000D01*
X122698000Y-116169946D01*
X122758369Y-116164000D01*
X122758371Y-116164000D01*
X122938926Y-116146217D01*
X123170593Y-116075941D01*
X123384099Y-115961820D01*
X123458738Y-115900565D01*
X142597040Y-115900565D01*
X142664020Y-116140656D01*
X142913048Y-116257756D01*
X143180135Y-116324023D01*
X143455017Y-116336910D01*
X143727133Y-116295922D01*
X143986023Y-116202636D01*
X144101980Y-116140656D01*
X144168960Y-115900565D01*
X143383000Y-115114605D01*
X142597040Y-115900565D01*
X123458738Y-115900565D01*
X123571239Y-115808239D01*
X123609731Y-115761336D01*
X124364050Y-115007017D01*
X141981090Y-115007017D01*
X142022078Y-115279133D01*
X142115364Y-115538023D01*
X142177344Y-115653980D01*
X142417435Y-115720960D01*
X143203395Y-114935000D01*
X143562605Y-114935000D01*
X144348565Y-115720960D01*
X144588656Y-115653980D01*
X144705756Y-115404952D01*
X144772023Y-115137865D01*
X144784910Y-114862983D01*
X144743922Y-114590867D01*
X144650636Y-114331977D01*
X144588656Y-114216020D01*
X144348565Y-114149040D01*
X143562605Y-114935000D01*
X143203395Y-114935000D01*
X142417435Y-114149040D01*
X142177344Y-114216020D01*
X142060244Y-114465048D01*
X141993977Y-114732135D01*
X141981090Y-115007017D01*
X124364050Y-115007017D01*
X124678767Y-114692301D01*
X125334000Y-114692301D01*
X125448738Y-114681000D01*
X139319000Y-114681000D01*
X139343776Y-114678560D01*
X139367601Y-114671333D01*
X139389557Y-114659597D01*
X139408803Y-114643803D01*
X139424597Y-114624557D01*
X139436333Y-114602601D01*
X139443560Y-114578776D01*
X139446000Y-114554000D01*
X139446000Y-114436590D01*
X140048250Y-114434000D01*
X140207000Y-114275250D01*
X140207000Y-113426000D01*
X140187000Y-113426000D01*
X140187000Y-113172000D01*
X140207000Y-113172000D01*
X140207000Y-113152000D01*
X140461000Y-113152000D01*
X140461000Y-113172000D01*
X140481000Y-113172000D01*
X140481000Y-113426000D01*
X140461000Y-113426000D01*
X140461000Y-114275250D01*
X140619750Y-114434000D01*
X141334000Y-114437072D01*
X141458482Y-114424812D01*
X141578180Y-114388502D01*
X141688494Y-114329537D01*
X141785185Y-114250185D01*
X141864537Y-114153494D01*
X141923502Y-114043180D01*
X141959812Y-113923482D01*
X141972072Y-113799000D01*
X141969000Y-113584750D01*
X141810252Y-113426002D01*
X141942724Y-113426002D01*
X141982853Y-113447451D01*
X142148407Y-113535941D01*
X142206783Y-113553649D01*
X142330549Y-113677415D01*
X142600958Y-113858097D01*
X142625289Y-113868175D01*
X142597040Y-113969435D01*
X143383000Y-114755395D01*
X144168960Y-113969435D01*
X144140711Y-113868175D01*
X144165042Y-113858097D01*
X144435451Y-113677415D01*
X144665415Y-113447451D01*
X144846097Y-113177042D01*
X144970553Y-112876579D01*
X145034000Y-112557609D01*
X145034000Y-112232391D01*
X144970553Y-111913421D01*
X144846097Y-111612958D01*
X144665415Y-111342549D01*
X144447866Y-111125000D01*
X144665415Y-110907451D01*
X144846097Y-110637042D01*
X144970553Y-110336579D01*
X145034000Y-110017609D01*
X145034000Y-109692391D01*
X144970553Y-109373421D01*
X144846097Y-109072958D01*
X144665415Y-108802549D01*
X144447866Y-108585000D01*
X144665415Y-108367451D01*
X144846097Y-108097042D01*
X144970553Y-107796579D01*
X145034000Y-107477609D01*
X145034000Y-107152391D01*
X144970553Y-106833421D01*
X144846097Y-106532958D01*
X144665415Y-106262549D01*
X144447866Y-106045000D01*
X144665415Y-105827451D01*
X144846097Y-105557042D01*
X144970553Y-105256579D01*
X145034000Y-104937609D01*
X145034000Y-104612391D01*
X144970553Y-104293421D01*
X144846097Y-103992958D01*
X144665415Y-103722549D01*
X144447866Y-103505000D01*
X144665415Y-103287451D01*
X144846097Y-103017042D01*
X144970553Y-102716579D01*
X145034000Y-102397609D01*
X145034000Y-102072391D01*
X144970553Y-101753421D01*
X144846097Y-101452958D01*
X144665415Y-101182549D01*
X144447866Y-100965000D01*
X144665415Y-100747451D01*
X144846097Y-100477042D01*
X144970553Y-100176579D01*
X145034000Y-99857609D01*
X145034000Y-99532391D01*
X144970553Y-99213421D01*
X144846097Y-98912958D01*
X144665415Y-98642549D01*
X144480536Y-98457670D01*
X144499494Y-98447537D01*
X144596185Y-98368185D01*
X144675537Y-98271494D01*
X144734502Y-98161180D01*
X144770812Y-98041482D01*
X144783072Y-97917000D01*
X144780000Y-97440750D01*
X144621250Y-97282000D01*
X143510000Y-97282000D01*
X143510000Y-97302000D01*
X143256000Y-97302000D01*
X143256000Y-97282000D01*
X142144750Y-97282000D01*
X141986000Y-97440750D01*
X141982928Y-97917000D01*
X141995188Y-98041482D01*
X142031498Y-98161180D01*
X142090463Y-98271494D01*
X142169815Y-98368185D01*
X142266506Y-98447537D01*
X142285464Y-98457670D01*
X142100585Y-98642549D01*
X141971546Y-98835669D01*
X141972072Y-98799000D01*
X141959812Y-98674518D01*
X141923502Y-98554820D01*
X141864537Y-98444506D01*
X141785185Y-98347815D01*
X141688494Y-98268463D01*
X141578180Y-98209498D01*
X141458482Y-98173188D01*
X141334000Y-98160928D01*
X140619750Y-98164000D01*
X140461000Y-98322750D01*
X140461000Y-99172000D01*
X140481000Y-99172000D01*
X140481000Y-99426000D01*
X140461000Y-99426000D01*
X140461000Y-99446000D01*
X140207000Y-99446000D01*
X140207000Y-99426000D01*
X140187000Y-99426000D01*
X140187000Y-99172000D01*
X140207000Y-99172000D01*
X140207000Y-98322750D01*
X140048250Y-98164000D01*
X139446000Y-98161410D01*
X139446000Y-97790000D01*
X139443560Y-97765224D01*
X139436333Y-97741399D01*
X139424597Y-97719443D01*
X139408803Y-97700197D01*
X139389557Y-97684403D01*
X139367601Y-97672667D01*
X139343776Y-97665440D01*
X139319000Y-97663000D01*
X125394450Y-97663000D01*
X125394450Y-96393000D01*
X141982928Y-96393000D01*
X141986000Y-96869250D01*
X142144750Y-97028000D01*
X143256000Y-97028000D01*
X143256000Y-95916750D01*
X143510000Y-95916750D01*
X143510000Y-97028000D01*
X144621250Y-97028000D01*
X144780000Y-96869250D01*
X144783072Y-96393000D01*
X144770812Y-96268518D01*
X144734502Y-96148820D01*
X144675537Y-96038506D01*
X144596185Y-95941815D01*
X144499494Y-95862463D01*
X144389180Y-95803498D01*
X144269482Y-95767188D01*
X144145000Y-95754928D01*
X143668750Y-95758000D01*
X143510000Y-95916750D01*
X143256000Y-95916750D01*
X143097250Y-95758000D01*
X142621000Y-95754928D01*
X142496518Y-95767188D01*
X142376820Y-95803498D01*
X142266506Y-95862463D01*
X142169815Y-95941815D01*
X142090463Y-96038506D01*
X142031498Y-96148820D01*
X141995188Y-96268518D01*
X141982928Y-96393000D01*
X125394450Y-96393000D01*
X125394450Y-95929450D01*
X131162832Y-95929450D01*
X131308826Y-95973736D01*
X131483100Y-95990901D01*
X133184900Y-95990901D01*
X133359174Y-95973736D01*
X133526751Y-95922903D01*
X133681191Y-95840353D01*
X133816559Y-95729259D01*
X133927653Y-95593891D01*
X134010203Y-95439451D01*
X134061036Y-95271874D01*
X134078201Y-95097600D01*
X134078201Y-94985431D01*
X134129506Y-95027536D01*
X134239820Y-95086501D01*
X134359518Y-95122811D01*
X134484000Y-95135071D01*
X134873250Y-95131999D01*
X135032000Y-94973249D01*
X135032000Y-92524000D01*
X135286000Y-92524000D01*
X135286000Y-94973249D01*
X135444750Y-95131999D01*
X135834000Y-95135071D01*
X135958482Y-95122811D01*
X136078180Y-95086501D01*
X136188494Y-95027536D01*
X136285185Y-94948184D01*
X136364537Y-94851493D01*
X136423502Y-94741179D01*
X136459812Y-94621481D01*
X136472072Y-94496999D01*
X136469000Y-92682750D01*
X136310250Y-92524000D01*
X135286000Y-92524000D01*
X135032000Y-92524000D01*
X135012000Y-92524000D01*
X135012000Y-92270000D01*
X135032000Y-92270000D01*
X135032000Y-92250000D01*
X135286000Y-92250000D01*
X135286000Y-92270000D01*
X136310250Y-92270000D01*
X136469000Y-92111250D01*
X136472072Y-90297001D01*
X136472072Y-90297000D01*
X146050000Y-90297000D01*
X146050000Y-117094000D01*
X117983000Y-117094000D01*
X117983000Y-98933000D01*
X119122928Y-98933000D01*
X119126000Y-99409250D01*
X119284750Y-99568000D01*
X120396000Y-99568000D01*
X120396000Y-98456750D01*
X120650000Y-98456750D01*
X120650000Y-99568000D01*
X121761250Y-99568000D01*
X121920000Y-99409250D01*
X121923072Y-98933000D01*
X121910812Y-98808518D01*
X121874502Y-98688820D01*
X121815537Y-98578506D01*
X121736185Y-98481815D01*
X121639494Y-98402463D01*
X121529180Y-98343498D01*
X121409482Y-98307188D01*
X121285000Y-98294928D01*
X120808750Y-98298000D01*
X120650000Y-98456750D01*
X120396000Y-98456750D01*
X120237250Y-98298000D01*
X119761000Y-98294928D01*
X119636518Y-98307188D01*
X119516820Y-98343498D01*
X119406506Y-98402463D01*
X119309815Y-98481815D01*
X119230463Y-98578506D01*
X119171498Y-98688820D01*
X119135188Y-98808518D01*
X119122928Y-98933000D01*
X117983000Y-98933000D01*
X117983000Y-94348300D01*
X121751828Y-94348300D01*
X121764088Y-94472782D01*
X121800398Y-94592480D01*
X121859363Y-94702794D01*
X121938715Y-94799485D01*
X122035406Y-94878837D01*
X122145720Y-94937802D01*
X122265418Y-94974112D01*
X122389900Y-94986372D01*
X122599450Y-94983300D01*
X122758200Y-94824550D01*
X122758200Y-93370400D01*
X121913650Y-93370400D01*
X121754900Y-93529150D01*
X121751828Y-94348300D01*
X117983000Y-94348300D01*
X117983000Y-92138500D01*
X121751828Y-92138500D01*
X121754900Y-92957650D01*
X121913650Y-93116400D01*
X122758200Y-93116400D01*
X122758200Y-91662250D01*
X123012200Y-91662250D01*
X123012200Y-93116400D01*
X123856750Y-93116400D01*
X124015500Y-92957650D01*
X124015760Y-92888262D01*
X124047250Y-92887800D01*
X124206000Y-92729050D01*
X124206000Y-91884500D01*
X124186000Y-91884500D01*
X124186000Y-91630500D01*
X124206000Y-91630500D01*
X124206000Y-90785950D01*
X124460000Y-90785950D01*
X124460000Y-91630500D01*
X124480000Y-91630500D01*
X124480000Y-91884500D01*
X124460000Y-91884500D01*
X124460000Y-92729050D01*
X124618750Y-92887800D01*
X124650240Y-92888262D01*
X124650500Y-92957650D01*
X124809250Y-93116400D01*
X125653800Y-93116400D01*
X125653800Y-91662250D01*
X125907800Y-91662250D01*
X125907800Y-93116400D01*
X126752350Y-93116400D01*
X126911100Y-92957650D01*
X126914172Y-92138500D01*
X126901912Y-92014018D01*
X126865602Y-91894320D01*
X126806637Y-91784006D01*
X126727285Y-91687315D01*
X126630594Y-91607963D01*
X126520280Y-91548998D01*
X126400582Y-91512688D01*
X126276100Y-91500428D01*
X126066550Y-91503500D01*
X125907800Y-91662250D01*
X125653800Y-91662250D01*
X125495050Y-91503500D01*
X125432467Y-91502583D01*
X125463300Y-91471750D01*
X125466372Y-91262200D01*
X125454112Y-91137718D01*
X125417802Y-91018020D01*
X125358837Y-90907706D01*
X125279485Y-90811015D01*
X125182794Y-90731663D01*
X125072480Y-90672698D01*
X124952782Y-90636388D01*
X124828300Y-90624128D01*
X124618750Y-90627200D01*
X124460000Y-90785950D01*
X124206000Y-90785950D01*
X124047250Y-90627200D01*
X123837700Y-90624128D01*
X123713218Y-90636388D01*
X123593520Y-90672698D01*
X123483206Y-90731663D01*
X123386515Y-90811015D01*
X123307163Y-90907706D01*
X123248198Y-91018020D01*
X123211888Y-91137718D01*
X123199628Y-91262200D01*
X123202700Y-91471750D01*
X123233533Y-91502583D01*
X123170950Y-91503500D01*
X123012200Y-91662250D01*
X122758200Y-91662250D01*
X122599450Y-91503500D01*
X122389900Y-91500428D01*
X122265418Y-91512688D01*
X122145720Y-91548998D01*
X122035406Y-91607963D01*
X121938715Y-91687315D01*
X121859363Y-91784006D01*
X121800398Y-91894320D01*
X121764088Y-92014018D01*
X121751828Y-92138500D01*
X117983000Y-92138500D01*
X117983000Y-90297000D01*
X128195928Y-90297000D01*
X128195928Y-90297001D01*
%TA.AperFunction,Conductor*%
D28*
G36*
X128195928Y-90297001D02*
G01*
X128199000Y-92111250D01*
X128357750Y-92270000D01*
X129382000Y-92270000D01*
X129382000Y-92250000D01*
X129636000Y-92250000D01*
X129636000Y-92270000D01*
X129656000Y-92270000D01*
X129656000Y-92524000D01*
X129636000Y-92524000D01*
X129636000Y-92544000D01*
X129382000Y-92544000D01*
X129382000Y-92524000D01*
X128357750Y-92524000D01*
X128199000Y-92682750D01*
X128197094Y-93808550D01*
X126912148Y-93808550D01*
X126911100Y-93529150D01*
X126752350Y-93370400D01*
X125907800Y-93370400D01*
X125907800Y-93390400D01*
X125653800Y-93390400D01*
X125653800Y-93370400D01*
X125043900Y-93370400D01*
X125002574Y-93357864D01*
X124828300Y-93340699D01*
X123837700Y-93340699D01*
X123663426Y-93357864D01*
X123622100Y-93370400D01*
X123012200Y-93370400D01*
X123012200Y-93892798D01*
X122961564Y-94059726D01*
X122944399Y-94234000D01*
X122944399Y-95224600D01*
X122961564Y-95398874D01*
X123012397Y-95566451D01*
X123094947Y-95720891D01*
X123206041Y-95856259D01*
X123273550Y-95911663D01*
X123273551Y-97911653D01*
X123159726Y-97922864D01*
X122992149Y-97973697D01*
X122837709Y-98056247D01*
X122702341Y-98167341D01*
X122591247Y-98302709D01*
X122508697Y-98457149D01*
X122457864Y-98624726D01*
X122440699Y-98799000D01*
X122440699Y-99799000D01*
X122457864Y-99973274D01*
X122508697Y-100140851D01*
X122591247Y-100295291D01*
X122702341Y-100430659D01*
X122777774Y-100492566D01*
X122744498Y-100554820D01*
X122708188Y-100674518D01*
X122695928Y-100799000D01*
X122699000Y-101013250D01*
X122857750Y-101172000D01*
X124207000Y-101172000D01*
X124207000Y-101152000D01*
X124461000Y-101152000D01*
X124461000Y-101172000D01*
X124481000Y-101172000D01*
X124481000Y-101426000D01*
X124461000Y-101426000D01*
X124461000Y-101446000D01*
X124207000Y-101446000D01*
X124207000Y-101426000D01*
X122857750Y-101426000D01*
X122699000Y-101584750D01*
X122695928Y-101799000D01*
X122708188Y-101923482D01*
X122744498Y-102043180D01*
X122777774Y-102105434D01*
X122739311Y-102137000D01*
X122174000Y-102137000D01*
X122174000Y-102072391D01*
X122110553Y-101753421D01*
X121986097Y-101452958D01*
X121805415Y-101182549D01*
X121620536Y-100997670D01*
X121639494Y-100987537D01*
X121736185Y-100908185D01*
X121815537Y-100811494D01*
X121874502Y-100701180D01*
X121910812Y-100581482D01*
X121923072Y-100457000D01*
X121920000Y-99980750D01*
X121761250Y-99822000D01*
X120650000Y-99822000D01*
X120650000Y-99842000D01*
X120396000Y-99842000D01*
X120396000Y-99822000D01*
X119284750Y-99822000D01*
X119126000Y-99980750D01*
X119122928Y-100457000D01*
X119135188Y-100581482D01*
X119171498Y-100701180D01*
X119230463Y-100811494D01*
X119309815Y-100908185D01*
X119406506Y-100987537D01*
X119425464Y-100997670D01*
X119240585Y-101182549D01*
X119059903Y-101452958D01*
X118935447Y-101753421D01*
X118872000Y-102072391D01*
X118872000Y-102397609D01*
X118935447Y-102716579D01*
X119059903Y-103017042D01*
X119240585Y-103287451D01*
X119458134Y-103505000D01*
X119240585Y-103722549D01*
X119059903Y-103992958D01*
X118935447Y-104293421D01*
X118872000Y-104612391D01*
X118872000Y-104937609D01*
X118935447Y-105256579D01*
X119059903Y-105557042D01*
X119240585Y-105827451D01*
X119458134Y-106045000D01*
X119240585Y-106262549D01*
X119059903Y-106532958D01*
X118935447Y-106833421D01*
X118872000Y-107152391D01*
X118872000Y-107477609D01*
X118935447Y-107796579D01*
X119059903Y-108097042D01*
X119240585Y-108367451D01*
X119458134Y-108585000D01*
X119240585Y-108802549D01*
X119059903Y-109072958D01*
X118935447Y-109373421D01*
X118872000Y-109692391D01*
X118872000Y-110017609D01*
X118935447Y-110336579D01*
X119059903Y-110637042D01*
X119240585Y-110907451D01*
X119458134Y-111125000D01*
X119240585Y-111342549D01*
X119059903Y-111612958D01*
X118935447Y-111913421D01*
X118872000Y-112232391D01*
X118872000Y-112557609D01*
X118935447Y-112876579D01*
X119059903Y-113177042D01*
X119240585Y-113447451D01*
X119458134Y-113665000D01*
X119240585Y-113882549D01*
X119059903Y-114152958D01*
X118935447Y-114453421D01*
X118872000Y-114772391D01*
X118872000Y-115097609D01*
X118935447Y-115416579D01*
X119059903Y-115717042D01*
X119240585Y-115987451D01*
X119470549Y-116217415D01*
X119740958Y-116398097D01*
X120041421Y-116522553D01*
X120360391Y-116586000D01*
X120685609Y-116586000D01*
X121004579Y-116522553D01*
X121305042Y-116398097D01*
X121575451Y-116217415D01*
X121628866Y-116164000D01*
X122637631Y-116164000D01*
X122698000Y-116169946D01*
X122758369Y-116164000D01*
X122758371Y-116164000D01*
X122938926Y-116146217D01*
X123170593Y-116075941D01*
X123384099Y-115961820D01*
X123458738Y-115900565D01*
X142597040Y-115900565D01*
X142664020Y-116140656D01*
X142913048Y-116257756D01*
X143180135Y-116324023D01*
X143455017Y-116336910D01*
X143727133Y-116295922D01*
X143986023Y-116202636D01*
X144101980Y-116140656D01*
X144168960Y-115900565D01*
X143383000Y-115114605D01*
X142597040Y-115900565D01*
X123458738Y-115900565D01*
X123571239Y-115808239D01*
X123609731Y-115761336D01*
X124364050Y-115007017D01*
X141981090Y-115007017D01*
X142022078Y-115279133D01*
X142115364Y-115538023D01*
X142177344Y-115653980D01*
X142417435Y-115720960D01*
X143203395Y-114935000D01*
X143562605Y-114935000D01*
X144348565Y-115720960D01*
X144588656Y-115653980D01*
X144705756Y-115404952D01*
X144772023Y-115137865D01*
X144784910Y-114862983D01*
X144743922Y-114590867D01*
X144650636Y-114331977D01*
X144588656Y-114216020D01*
X144348565Y-114149040D01*
X143562605Y-114935000D01*
X143203395Y-114935000D01*
X142417435Y-114149040D01*
X142177344Y-114216020D01*
X142060244Y-114465048D01*
X141993977Y-114732135D01*
X141981090Y-115007017D01*
X124364050Y-115007017D01*
X124678767Y-114692301D01*
X125334000Y-114692301D01*
X125448738Y-114681000D01*
X139319000Y-114681000D01*
X139343776Y-114678560D01*
X139367601Y-114671333D01*
X139389557Y-114659597D01*
X139408803Y-114643803D01*
X139424597Y-114624557D01*
X139436333Y-114602601D01*
X139443560Y-114578776D01*
X139446000Y-114554000D01*
X139446000Y-114436590D01*
X140048250Y-114434000D01*
X140207000Y-114275250D01*
X140207000Y-113426000D01*
X140187000Y-113426000D01*
X140187000Y-113172000D01*
X140207000Y-113172000D01*
X140207000Y-113152000D01*
X140461000Y-113152000D01*
X140461000Y-113172000D01*
X140481000Y-113172000D01*
X140481000Y-113426000D01*
X140461000Y-113426000D01*
X140461000Y-114275250D01*
X140619750Y-114434000D01*
X141334000Y-114437072D01*
X141458482Y-114424812D01*
X141578180Y-114388502D01*
X141688494Y-114329537D01*
X141785185Y-114250185D01*
X141864537Y-114153494D01*
X141923502Y-114043180D01*
X141959812Y-113923482D01*
X141972072Y-113799000D01*
X141969000Y-113584750D01*
X141810252Y-113426002D01*
X141942724Y-113426002D01*
X141982853Y-113447451D01*
X142148407Y-113535941D01*
X142206783Y-113553649D01*
X142330549Y-113677415D01*
X142600958Y-113858097D01*
X142625289Y-113868175D01*
X142597040Y-113969435D01*
X143383000Y-114755395D01*
X144168960Y-113969435D01*
X144140711Y-113868175D01*
X144165042Y-113858097D01*
X144435451Y-113677415D01*
X144665415Y-113447451D01*
X144846097Y-113177042D01*
X144970553Y-112876579D01*
X145034000Y-112557609D01*
X145034000Y-112232391D01*
X144970553Y-111913421D01*
X144846097Y-111612958D01*
X144665415Y-111342549D01*
X144447866Y-111125000D01*
X144665415Y-110907451D01*
X144846097Y-110637042D01*
X144970553Y-110336579D01*
X145034000Y-110017609D01*
X145034000Y-109692391D01*
X144970553Y-109373421D01*
X144846097Y-109072958D01*
X144665415Y-108802549D01*
X144447866Y-108585000D01*
X144665415Y-108367451D01*
X144846097Y-108097042D01*
X144970553Y-107796579D01*
X145034000Y-107477609D01*
X145034000Y-107152391D01*
X144970553Y-106833421D01*
X144846097Y-106532958D01*
X144665415Y-106262549D01*
X144447866Y-106045000D01*
X144665415Y-105827451D01*
X144846097Y-105557042D01*
X144970553Y-105256579D01*
X145034000Y-104937609D01*
X145034000Y-104612391D01*
X144970553Y-104293421D01*
X144846097Y-103992958D01*
X144665415Y-103722549D01*
X144447866Y-103505000D01*
X144665415Y-103287451D01*
X144846097Y-103017042D01*
X144970553Y-102716579D01*
X145034000Y-102397609D01*
X145034000Y-102072391D01*
X144970553Y-101753421D01*
X144846097Y-101452958D01*
X144665415Y-101182549D01*
X144447866Y-100965000D01*
X144665415Y-100747451D01*
X144846097Y-100477042D01*
X144970553Y-100176579D01*
X145034000Y-99857609D01*
X145034000Y-99532391D01*
X144970553Y-99213421D01*
X144846097Y-98912958D01*
X144665415Y-98642549D01*
X144480536Y-98457670D01*
X144499494Y-98447537D01*
X144596185Y-98368185D01*
X144675537Y-98271494D01*
X144734502Y-98161180D01*
X144770812Y-98041482D01*
X144783072Y-97917000D01*
X144780000Y-97440750D01*
X144621250Y-97282000D01*
X143510000Y-97282000D01*
X143510000Y-97302000D01*
X143256000Y-97302000D01*
X143256000Y-97282000D01*
X142144750Y-97282000D01*
X141986000Y-97440750D01*
X141982928Y-97917000D01*
X141995188Y-98041482D01*
X142031498Y-98161180D01*
X142090463Y-98271494D01*
X142169815Y-98368185D01*
X142266506Y-98447537D01*
X142285464Y-98457670D01*
X142100585Y-98642549D01*
X141971546Y-98835669D01*
X141972072Y-98799000D01*
X141959812Y-98674518D01*
X141923502Y-98554820D01*
X141864537Y-98444506D01*
X141785185Y-98347815D01*
X141688494Y-98268463D01*
X141578180Y-98209498D01*
X141458482Y-98173188D01*
X141334000Y-98160928D01*
X140619750Y-98164000D01*
X140461000Y-98322750D01*
X140461000Y-99172000D01*
X140481000Y-99172000D01*
X140481000Y-99426000D01*
X140461000Y-99426000D01*
X140461000Y-99446000D01*
X140207000Y-99446000D01*
X140207000Y-99426000D01*
X140187000Y-99426000D01*
X140187000Y-99172000D01*
X140207000Y-99172000D01*
X140207000Y-98322750D01*
X140048250Y-98164000D01*
X139446000Y-98161410D01*
X139446000Y-97790000D01*
X139443560Y-97765224D01*
X139436333Y-97741399D01*
X139424597Y-97719443D01*
X139408803Y-97700197D01*
X139389557Y-97684403D01*
X139367601Y-97672667D01*
X139343776Y-97665440D01*
X139319000Y-97663000D01*
X125394450Y-97663000D01*
X125394450Y-96393000D01*
X141982928Y-96393000D01*
X141986000Y-96869250D01*
X142144750Y-97028000D01*
X143256000Y-97028000D01*
X143256000Y-95916750D01*
X143510000Y-95916750D01*
X143510000Y-97028000D01*
X144621250Y-97028000D01*
X144780000Y-96869250D01*
X144783072Y-96393000D01*
X144770812Y-96268518D01*
X144734502Y-96148820D01*
X144675537Y-96038506D01*
X144596185Y-95941815D01*
X144499494Y-95862463D01*
X144389180Y-95803498D01*
X144269482Y-95767188D01*
X144145000Y-95754928D01*
X143668750Y-95758000D01*
X143510000Y-95916750D01*
X143256000Y-95916750D01*
X143097250Y-95758000D01*
X142621000Y-95754928D01*
X142496518Y-95767188D01*
X142376820Y-95803498D01*
X142266506Y-95862463D01*
X142169815Y-95941815D01*
X142090463Y-96038506D01*
X142031498Y-96148820D01*
X141995188Y-96268518D01*
X141982928Y-96393000D01*
X125394450Y-96393000D01*
X125394450Y-95929450D01*
X131162832Y-95929450D01*
X131308826Y-95973736D01*
X131483100Y-95990901D01*
X133184900Y-95990901D01*
X133359174Y-95973736D01*
X133526751Y-95922903D01*
X133681191Y-95840353D01*
X133816559Y-95729259D01*
X133927653Y-95593891D01*
X134010203Y-95439451D01*
X134061036Y-95271874D01*
X134078201Y-95097600D01*
X134078201Y-94985431D01*
X134129506Y-95027536D01*
X134239820Y-95086501D01*
X134359518Y-95122811D01*
X134484000Y-95135071D01*
X134873250Y-95131999D01*
X135032000Y-94973249D01*
X135032000Y-92524000D01*
X135286000Y-92524000D01*
X135286000Y-94973249D01*
X135444750Y-95131999D01*
X135834000Y-95135071D01*
X135958482Y-95122811D01*
X136078180Y-95086501D01*
X136188494Y-95027536D01*
X136285185Y-94948184D01*
X136364537Y-94851493D01*
X136423502Y-94741179D01*
X136459812Y-94621481D01*
X136472072Y-94496999D01*
X136469000Y-92682750D01*
X136310250Y-92524000D01*
X135286000Y-92524000D01*
X135032000Y-92524000D01*
X135012000Y-92524000D01*
X135012000Y-92270000D01*
X135032000Y-92270000D01*
X135032000Y-92250000D01*
X135286000Y-92250000D01*
X135286000Y-92270000D01*
X136310250Y-92270000D01*
X136469000Y-92111250D01*
X136472072Y-90297001D01*
X136472072Y-90297000D01*
X146050000Y-90297000D01*
X146050000Y-117094000D01*
X117983000Y-117094000D01*
X117983000Y-98933000D01*
X119122928Y-98933000D01*
X119126000Y-99409250D01*
X119284750Y-99568000D01*
X120396000Y-99568000D01*
X120396000Y-98456750D01*
X120650000Y-98456750D01*
X120650000Y-99568000D01*
X121761250Y-99568000D01*
X121920000Y-99409250D01*
X121923072Y-98933000D01*
X121910812Y-98808518D01*
X121874502Y-98688820D01*
X121815537Y-98578506D01*
X121736185Y-98481815D01*
X121639494Y-98402463D01*
X121529180Y-98343498D01*
X121409482Y-98307188D01*
X121285000Y-98294928D01*
X120808750Y-98298000D01*
X120650000Y-98456750D01*
X120396000Y-98456750D01*
X120237250Y-98298000D01*
X119761000Y-98294928D01*
X119636518Y-98307188D01*
X119516820Y-98343498D01*
X119406506Y-98402463D01*
X119309815Y-98481815D01*
X119230463Y-98578506D01*
X119171498Y-98688820D01*
X119135188Y-98808518D01*
X119122928Y-98933000D01*
X117983000Y-98933000D01*
X117983000Y-94348300D01*
X121751828Y-94348300D01*
X121764088Y-94472782D01*
X121800398Y-94592480D01*
X121859363Y-94702794D01*
X121938715Y-94799485D01*
X122035406Y-94878837D01*
X122145720Y-94937802D01*
X122265418Y-94974112D01*
X122389900Y-94986372D01*
X122599450Y-94983300D01*
X122758200Y-94824550D01*
X122758200Y-93370400D01*
X121913650Y-93370400D01*
X121754900Y-93529150D01*
X121751828Y-94348300D01*
X117983000Y-94348300D01*
X117983000Y-92138500D01*
X121751828Y-92138500D01*
X121754900Y-92957650D01*
X121913650Y-93116400D01*
X122758200Y-93116400D01*
X122758200Y-91662250D01*
X123012200Y-91662250D01*
X123012200Y-93116400D01*
X123856750Y-93116400D01*
X124015500Y-92957650D01*
X124015760Y-92888262D01*
X124047250Y-92887800D01*
X124206000Y-92729050D01*
X124206000Y-91884500D01*
X124186000Y-91884500D01*
X124186000Y-91630500D01*
X124206000Y-91630500D01*
X124206000Y-90785950D01*
X124460000Y-90785950D01*
X124460000Y-91630500D01*
X124480000Y-91630500D01*
X124480000Y-91884500D01*
X124460000Y-91884500D01*
X124460000Y-92729050D01*
X124618750Y-92887800D01*
X124650240Y-92888262D01*
X124650500Y-92957650D01*
X124809250Y-93116400D01*
X125653800Y-93116400D01*
X125653800Y-91662250D01*
X125907800Y-91662250D01*
X125907800Y-93116400D01*
X126752350Y-93116400D01*
X126911100Y-92957650D01*
X126914172Y-92138500D01*
X126901912Y-92014018D01*
X126865602Y-91894320D01*
X126806637Y-91784006D01*
X126727285Y-91687315D01*
X126630594Y-91607963D01*
X126520280Y-91548998D01*
X126400582Y-91512688D01*
X126276100Y-91500428D01*
X126066550Y-91503500D01*
X125907800Y-91662250D01*
X125653800Y-91662250D01*
X125495050Y-91503500D01*
X125432467Y-91502583D01*
X125463300Y-91471750D01*
X125466372Y-91262200D01*
X125454112Y-91137718D01*
X125417802Y-91018020D01*
X125358837Y-90907706D01*
X125279485Y-90811015D01*
X125182794Y-90731663D01*
X125072480Y-90672698D01*
X124952782Y-90636388D01*
X124828300Y-90624128D01*
X124618750Y-90627200D01*
X124460000Y-90785950D01*
X124206000Y-90785950D01*
X124047250Y-90627200D01*
X123837700Y-90624128D01*
X123713218Y-90636388D01*
X123593520Y-90672698D01*
X123483206Y-90731663D01*
X123386515Y-90811015D01*
X123307163Y-90907706D01*
X123248198Y-91018020D01*
X123211888Y-91137718D01*
X123199628Y-91262200D01*
X123202700Y-91471750D01*
X123233533Y-91502583D01*
X123170950Y-91503500D01*
X123012200Y-91662250D01*
X122758200Y-91662250D01*
X122599450Y-91503500D01*
X122389900Y-91500428D01*
X122265418Y-91512688D01*
X122145720Y-91548998D01*
X122035406Y-91607963D01*
X121938715Y-91687315D01*
X121859363Y-91784006D01*
X121800398Y-91894320D01*
X121764088Y-92014018D01*
X121751828Y-92138500D01*
X117983000Y-92138500D01*
X117983000Y-90297000D01*
X128195928Y-90297000D01*
X128195928Y-90297001D01*
G37*
%TD.AperFunction*%
%TD*%
M02*
